<svg id="logotipo-de-instagram" xmlns="http://www.w3.org/2000/svg" width="17.363" height="17.363" viewBox="0 0 17.363 17.363">
  <path id="Trazado_7" data-name="Trazado 7" d="M12.571,0H4.791A4.8,4.8,0,0,0,0,4.792v7.78a4.8,4.8,0,0,0,4.791,4.792h7.78a4.8,4.8,0,0,0,4.792-4.792V4.792A4.8,4.8,0,0,0,12.571,0Zm3.251,12.571a3.255,3.255,0,0,1-3.251,3.251H4.791a3.255,3.255,0,0,1-3.251-3.251V4.792A3.255,3.255,0,0,1,4.791,1.541h7.78a3.255,3.255,0,0,1,3.251,3.251v7.78Z" fill="#f5f2ee"/>
  <path id="Trazado_8" data-name="Trazado 8" d="M45.442,40.97a4.474,4.474,0,1,0,4.474,4.474A4.479,4.479,0,0,0,45.442,40.97Zm0,7.407a2.933,2.933,0,1,1,2.933-2.933A2.937,2.937,0,0,1,45.442,48.377Z" transform="translate(-36.76 -36.762)" fill="#f5f2ee"/>
  <path id="Trazado_9" data-name="Trazado 9" d="M120.051,28.251a1.129,1.129,0,1,0,.8.331A1.134,1.134,0,0,0,120.051,28.251Z" transform="translate(-106.708 -25.35)" fill="#f5f2ee"/>
</svg>
