<svg id="Componente_53_2" data-name="Componente 53 – 2" xmlns="http://www.w3.org/2000/svg" width="92" height="92" viewBox="0 0 92 92">
  <g id="Grupo_759" data-name="Grupo 759" transform="translate(19.742 17.968)">
    <g id="Grupo_758" data-name="Grupo 758">
      <path id="Trazado_576" data-name="Trazado 576" d="M30.024,975.37a1.231,1.231,0,0,0-.271.058,9.368,9.368,0,0,0-5.765,4.295,9.714,9.714,0,0,0-.735,6.558c.906,4.644,4.119,9.636,8.183,13.794s8.965,7.485,13.639,8.454a9.892,9.892,0,0,0,6.674-.7,10.044,10.044,0,0,0,4.6-5.823,1.238,1.238,0,0,0-.5-1.451l-8.822-5.533-.019-.019a1.211,1.211,0,0,0-.135-.078,1.241,1.241,0,0,0-.426-.174H46.41q-.048-.011-.1-.019h-.019a1.238,1.238,0,0,0-.6.116,1.215,1.215,0,0,0-.193.116,1.185,1.185,0,0,0-.116.077q-.02.029-.039.058a1.233,1.233,0,0,0-.135.135l-1.935,1.954c-3.508-1.766-6.2-4.726-8.628-8.725l1.78-1.761a1.183,1.183,0,0,0,.1-.1c.027-.024.053-.05.077-.077,0-.006,0-.013,0-.019.027-.025.053-.05.077-.078,0-.006,0-.012,0-.019s.026-.038.039-.058l.039-.038c.014-.032.027-.064.039-.1q0-.01,0-.019l.019-.039c.014-.025.027-.051.039-.077s.014-.064.019-.1c0-.006,0-.013,0-.019q.012-.057.019-.116c0-.006,0-.013,0-.019q0-.048,0-.1c0-.006,0-.013,0-.019q0-.049,0-.1c0-.013,0-.026,0-.039-.005-.032-.012-.065-.019-.1,0-.006,0-.013,0-.019a1.236,1.236,0,0,0-.077-.213c0-.007,0-.013,0-.019a1.227,1.227,0,0,0-.077-.155l-.019-.039-.019-.019-5.514-9.054a1.238,1.238,0,0,0-1.025-.6,1.15,1.15,0,0,0-.116,0Zm-.445,2.728,4.508,7.448L32.21,987.4a1.238,1.238,0,0,0-.193,1.49c2.864,4.959,6.257,8.817,11.008,10.911a1.238,1.238,0,0,0,1.374-.251l1.993-1.993,7.274,4.546a6.879,6.879,0,0,1-3.057,3.521,7.423,7.423,0,0,1-5.03.464c-3.879-.8-8.564-3.852-12.382-7.758s-6.772-8.654-7.526-12.517a7.27,7.27,0,0,1,.5-4.914A6.266,6.266,0,0,1,29.579,978.1Z" transform="translate(-12.479 -964.841)" fill="#fff" stroke="#fff" stroke-width="0.5" fill-rule="evenodd"/>
      <path id="Trazado_577" data-name="Trazado 577" d="M33.239,958.362a27.234,27.234,0,0,0-22.767,42.187l-3.046,10.166a1.238,1.238,0,0,0,1.59,1.526l9.95-3.434a27.241,27.241,0,1,0,14.273-50.444Zm0,2.476A24.763,24.763,0,1,1,19.8,1006.4a1.238,1.238,0,0,0-1.078-.132l-8.229,2.84,2.52-8.409a1.238,1.238,0,0,0-.163-1.053,24.762,24.762,0,0,1,20.391-38.812Z" transform="translate(-6 -958.362)" fill="#fff" stroke="#fff" stroke-width="0.5" fill-rule="evenodd"/>
    </g>
  </g>
  <circle id="Elipse_429" data-name="Elipse 429" cx="46" cy="46" r="46" fill="#2f2f2f"/>
  <circle id="Elipse_430" data-name="Elipse 430" cx="2" cy="2" r="2" transform="translate(44 44)" fill="#ef730d" opacity="0"/>
  <g id="Grupo_1700" data-name="Grupo 1700" transform="translate(19.742 17.968)">
    <g id="Grupo_758-2" data-name="Grupo 758">
      <path id="Trazado_576-2" data-name="Trazado 576" d="M30.024,975.37a1.231,1.231,0,0,0-.271.058,9.368,9.368,0,0,0-5.765,4.295,9.714,9.714,0,0,0-.735,6.558c.906,4.644,4.119,9.636,8.183,13.794s8.965,7.485,13.639,8.454a9.892,9.892,0,0,0,6.674-.7,10.044,10.044,0,0,0,4.6-5.823,1.238,1.238,0,0,0-.5-1.451l-8.822-5.533-.019-.019a1.211,1.211,0,0,0-.135-.078,1.241,1.241,0,0,0-.426-.174H46.41q-.048-.011-.1-.019h-.019a1.238,1.238,0,0,0-.6.116,1.215,1.215,0,0,0-.193.116,1.185,1.185,0,0,0-.116.077q-.02.029-.039.058a1.233,1.233,0,0,0-.135.135l-1.935,1.954c-3.508-1.766-6.2-4.726-8.628-8.725l1.78-1.761a1.183,1.183,0,0,0,.1-.1c.027-.024.053-.05.077-.077,0-.006,0-.013,0-.019.027-.025.053-.05.077-.078,0-.006,0-.012,0-.019s.026-.038.039-.058l.039-.038c.014-.032.027-.064.039-.1q0-.01,0-.019l.019-.039c.014-.025.027-.051.039-.077s.014-.064.019-.1c0-.006,0-.013,0-.019q.012-.057.019-.116c0-.006,0-.013,0-.019q0-.048,0-.1c0-.006,0-.013,0-.019q0-.049,0-.1c0-.013,0-.026,0-.039-.005-.032-.012-.065-.019-.1,0-.006,0-.013,0-.019a1.236,1.236,0,0,0-.077-.213c0-.007,0-.013,0-.019a1.227,1.227,0,0,0-.077-.155l-.019-.039-.019-.019-5.514-9.054a1.238,1.238,0,0,0-1.025-.6,1.15,1.15,0,0,0-.116,0Zm-.445,2.728,4.508,7.448L32.21,987.4a1.238,1.238,0,0,0-.193,1.49c2.864,4.959,6.257,8.817,11.008,10.911a1.238,1.238,0,0,0,1.374-.251l1.993-1.993,7.274,4.546a6.879,6.879,0,0,1-3.057,3.521,7.423,7.423,0,0,1-5.03.464c-3.879-.8-8.564-3.852-12.382-7.758s-6.772-8.654-7.526-12.517a7.27,7.27,0,0,1,.5-4.914A6.266,6.266,0,0,1,29.579,978.1Z" transform="translate(-12.479 -964.841)" fill="#fff" stroke="#fff" stroke-width="0.5" fill-rule="evenodd"/>
      <path id="Trazado_577-2" data-name="Trazado 577" d="M33.239,958.362a27.234,27.234,0,0,0-22.767,42.187l-3.046,10.166a1.238,1.238,0,0,0,1.59,1.526l9.95-3.434a27.241,27.241,0,1,0,14.273-50.444Zm0,2.476A24.763,24.763,0,1,1,19.8,1006.4a1.238,1.238,0,0,0-1.078-.132l-8.229,2.84,2.52-8.409a1.238,1.238,0,0,0-.163-1.053,24.762,24.762,0,0,1,20.391-38.812Z" transform="translate(-6 -958.362)" fill="#fff" stroke="#fff" stroke-width="0.5" fill-rule="evenodd"/>
    </g>
  </g>
</svg>
