<svg id="linkedin" xmlns="http://www.w3.org/2000/svg" width="17.598" height="16.821" viewBox="0 0 17.598 16.821">
  <path id="Trazado_10" data-name="Trazado 10" d="M2.134-.668a1.966,1.966,0,1,0-.05,3.922h.024A1.967,1.967,0,1,0,2.134-.668Zm0,0" transform="translate(0 0.668)" fill="#f5f2ee"/>
  <path id="Trazado_11" data-name="Trazado 11" d="M8.109,198.313h3.773v11.35H8.109Zm0,0" transform="translate(-7.886 -192.842)" fill="#f5f2ee"/>
  <path id="Trazado_12" data-name="Trazado 12" d="M228.387,188.625a4.726,4.726,0,0,0-3.4,1.912v-1.646h-3.773v11.35h3.772V193.9a2.586,2.586,0,0,1,.124-.921,2.065,2.065,0,0,1,1.936-1.379c1.365,0,1.911,1.041,1.911,2.567v6.072h3.772v-6.508c0-3.486-1.861-5.108-4.343-5.108Zm0,0" transform="translate(-215.132 -183.42)" fill="#f5f2ee"/>
</svg>
